<svg width="218" height="184" viewBox="0 0 218 184" xmlns="http://www.w3.org/2000/svg">
<path d="M210.926 30.3809H183.1V145.144C183.1 149.295 180.035 152.469 176.026 152.469H31V175.91C31 180.061 34.0657 183.235 38.0742 183.235H210.926C214.935 183.235 218 180.061 218 175.91V37.7059C218 33.5548 214.935 30.3809 210.926 30.3809Z" fill="currentColor" fill-opacity="0.64"/>
<path d="M177.903 153.804C181.925 153.804 185 150.615 185 146.445V31.1532V7.35881C185 3.18852 181.924 0 177.903 0H7.09698C3.07552 0 0 3.18899 0 7.35881V146.445C0 150.615 3.07552 153.804 7.09698 153.804H32.4103H177.903Z" fill="currentColor"/>
<path d="M134.099 45.7745C134.099 33.8032 124.672 24.0308 113.124 24.0308C101.576 24.0308 92.1484 33.8032 92.1484 45.7745C92.1484 57.7458 101.576 67.5183 113.124 67.5183C124.672 67.5183 134.099 57.7458 134.099 45.7745Z" fill="#4B31D3" fill-opacity="0.64"/>
<path d="M76.123 49.9282C73.7665 49.9282 71.6449 51.1497 70.2312 53.1043L28.9876 115.648C27.5734 117.847 27.3379 120.778 28.5162 123.222C29.6945 125.665 32.0515 127.131 34.8794 127.131H99.2193H154.368C157.196 127.131 159.553 125.421 160.731 122.977C161.909 120.534 161.674 117.358 159.788 115.159L132.214 79.4898C130.8 77.7796 128.915 76.8023 126.794 76.8023C124.673 76.8023 122.552 77.7796 121.373 79.4898L109.59 94.6371L82.0153 53.1043C80.6011 51.1497 78.48 49.9282 76.123 49.9282Z" fill="#4B31D3" fill-opacity="0.64"/>
</svg>
