<?xml version="1.0" standalone="no"?>
<!DOCTYPE svg PUBLIC "-//W3C//DTD SVG 20010904//EN"
 "http://www.w3.org/TR/2001/REC-SVG-20010904/DTD/svg10.dtd">
<svg version="1.0" xmlns="http://www.w3.org/2000/svg"
 width="91.000000pt" height="91.000000pt" viewBox="0 0 91.000000 91.000000"
 preserveAspectRatio="xMidYMid meet">
<metadata>
Created by potrace 1.14, written by Peter Selinger 2001-2017
</metadata>
<g transform="translate(0.000000,91.000000) scale(0.100000,-0.100000)"
fill="#000000" stroke="none">
<path d="M9 800 c-1 -30 -1 -655 0 -687 1 -23 1 -23 176 -23 187 0 177 -3 177
50 0 52 5 50 -122 50 l-120 0 -1 28 c-1 32 -1 170 0 192 1 13 16 15 86 14 l86
-1 -3 50 -3 51 -82 1 -83 0 -1 30 c0 16 -1 62 -2 101 l-2 71 95 1 c52 0 101 1
108 1 9 1 12 15 10 48 l-3 48 -157 0 -158 1 -1 -26z"/>
<path d="M482 821 c-4 -3 -8 -169 -8 -368 l1 -363 57 0 58 0 0 135 0 135 33 1
c142 3 227 51 262 148 46 132 -12 268 -128 301 -48 13 -259 22 -275 11z m259
-121 c49 -36 61 -128 23 -186 -19 -28 -59 -45 -121 -51 l-53 -5 0 136 0 135
61 -4 c39 -3 71 -12 90 -25z"/>
</g>
</svg>
